# xmcd
#
# Track frame offsets: 
#        150
#        14452
#        28265
#        52950
#        75650
#        93405
#        108205
#        122417
#        139240
#        157627
#        178182
#        192922
#        207690
#        224107
#
# Disc length: 3203 seconds
#
# Revision: 6
# Processed by: cddbd v1.5.2PL0 Copyright (c) Steve Scherf et al.
# Submitted via: ExactAudioCopy v1.0b4
#
DISCID=c30c810e
DTITLE=Trio Nordestino - Báu Do Trio Nordestino 
DYEAR=2003
DGENRE=Forró
TTITLE0=Forró Pesado
TTITLE1=Forró Do Bole Bole - O Trem Pega
TTITLE2=Procurando Tu - Petrolina Juazeiro - Paixão De Beata (Neném Mu
TTITLE2=lher) (Part. Esp. Alceu Valença)
TTITLE3=Tá Chegando O Rouxinho - Chililiqui
TTITLE4=O Chineleiro (Part. Esp. Lenine)
TTITLE5=Bichinho Danado (Part. Esp. Elba Ramalho)
TTITLE6=Maracatu Êta (Part. Esp. Forróçacana)
TTITLE7=Amor Não Faz Mal A Ninguém - Só Me Causa Dor
TTITLE8=Menina Da Noite - Cadeira De Balanço
TTITLE9=Amor De Doido - João E Maria - Menina Apimentada (Part. Esp. D
TTITLE9=ominguinhos)
TTITLE10=Resto De Amor (Part. Esp. Fagner)
TTITLE11=Bebê Chorão
TTITLE12=Forró No Claro - Forró Desarmado
TTITLE13=Cair Na Brincadeira - Você Tá Mais Bonita - Esquenta Moreninh
TTITLE13=a
EXTD=YEAR: 2003
EXTT0=
EXTT1=
EXTT2=
EXTT3=
EXTT4=
EXTT5=
EXTT6=
EXTT7=
EXTT8=
EXTT9=
EXTT10=
EXTT11=
EXTT12=
EXTT13=
PLAYORDER=
